<svg width="42" height="42" viewBox="0 0 42 42" fill="none" xmlns="http://www.w3.org/2000/svg">
<path d="M21 42C32.598 42 42 32.598 42 21C42 9.40202 32.598 0 21 0C9.40202 0 0 9.40202 0 21C0 32.598 9.40202 42 21 42Z" fill="url(#paint0_linear_387_3129)"/>
<path d="M7.82092 22.0272C10.2758 20.675 13.0161 19.5464 15.5766 18.412C19.9815 16.5541 24.4039 14.7283 28.871 13.0285C29.7401 12.7389 31.3017 12.4557 31.4548 13.7437C31.371 15.5668 31.026 17.3793 30.7895 19.1918C30.189 23.1776 29.4949 27.1497 28.8181 31.1224C28.5849 32.4457 26.9272 33.1307 25.8666 32.2839C23.3175 30.5621 20.7489 28.857 18.2324 27.0953C17.408 26.2577 18.1724 25.0548 18.9086 24.4566C21.0081 22.3876 23.2346 20.6297 25.2244 18.4538C25.7611 17.1577 24.1753 18.25 23.6522 18.5847C20.778 20.5654 17.9741 22.6669 14.9438 24.4077C13.3959 25.2597 11.5919 24.5316 10.0447 24.0561C8.65748 23.4818 6.62466 22.9031 7.82078 22.0274L7.82092 22.0272Z" fill="#3E3C3C"/>
<defs>
<linearGradient id="paint0_linear_387_3129" x1="28.0017" y1="7.0014" x2="17.5017" y2="31.5" gradientUnits="userSpaceOnUse">
<stop stop-color="white"/>
<stop offset="0.935" stop-color="white"/>
<stop offset="1" stop-color="white"/>
</linearGradient>
</defs>
</svg>
