<?xml version="1.0" standalone="no"?>
<!DOCTYPE svg PUBLIC "-//W3C//DTD SVG 20010904//EN"
 "http://www.w3.org/TR/2001/REC-SVG-20010904/DTD/svg10.dtd">
<svg version="1.0" xmlns="http://www.w3.org/2000/svg"
 width="700.000000pt" height="700.000000pt" viewBox="0 0 700.000000 700.000000"
 preserveAspectRatio="xMidYMid meet">
<metadata>
Created by potrace 1.14, written by Peter Selinger 2001-2017
</metadata>
<g transform="translate(0.000000,700.000000) scale(0.100000,-0.100000)"
fill="#000000" stroke="none">
<path d="M925 4995 c-44 -8 -132 -29 -195 -47 l-115 -33 -3 -178 c-1 -99 1
-177 5 -175 5 1 46 22 93 44 133 65 240 96 352 101 64 4 114 1 143 -7 201 -56
235 -295 72 -510 -52 -69 -159 -187 -464 -513 l-243 -258 0 -160 0 -159 600 0
600 0 0 165 0 165 -391 0 -391 0 275 283 c317 326 339 350 400 449 67 108 98
209 98 322 0 50 -5 114 -12 141 -40 167 -188 306 -384 360 -84 23 -334 29
-440 10z"/>
<path d="M5670 4994 c-97 -20 -200 -76 -263 -143 -99 -104 -131 -197 -125
-365 3 -100 7 -118 35 -178 39 -83 99 -145 181 -185 61 -31 61 -32 32 -38 -42
-9 -139 -74 -182 -123 -77 -85 -118 -204 -118 -337 1 -172 50 -304 152 -402
118 -113 243 -155 458 -156 93 0 157 5 204 17 202 48 335 172 392 361 27 90
25 279 -4 359 -45 122 -124 212 -233 264 l-57 28 52 27 c141 74 216 208 216
387 0 249 -147 428 -397 484 -88 20 -253 20 -343 0z m290 -314 c77 -39 113
-106 113 -207 0 -138 -73 -220 -206 -230 -142 -12 -235 60 -253 195 -17 130
55 238 176 263 48 10 128 0 170 -21z m-18 -762 c53 -16 121 -78 149 -135 35
-73 33 -189 -4 -265 -51 -104 -143 -155 -266 -146 -39 3 -83 14 -107 26 -202
103 -186 443 25 518 46 17 152 18 203 2z"/>
<path d="M2433 4932 l-193 -46 0 -168 c0 -153 2 -168 18 -168 9 0 95 20 190
44 l172 44 0 -604 0 -604 -205 0 -205 0 0 -165 0 -165 595 0 595 0 0 165 0
165 -205 0 -205 0 0 775 0 775 -182 -1 c-182 -1 -184 -1 -375 -47z"/>
<path d="M4114 4520 c-114 -30 -190 -74 -274 -159 -86 -87 -136 -173 -172
-296 -20 -70 -23 -102 -23 -265 0 -213 10 -263 77 -400 71 -146 194 -248 361
-299 109 -33 264 -45 408 -31 121 11 308 53 382 84 l37 16 0 170 c0 94 -2 170
-4 170 -3 0 -44 -20 -93 -44 -114 -57 -204 -84 -324 -98 -160 -19 -297 9 -377
77 -44 37 -82 115 -89 181 l-6 54 478 0 478 0 -6 158 c-4 111 -11 180 -26 237
-62 240 -224 403 -448 450 -98 21 -290 19 -379 -5z m342 -298 c73 -37 117
-107 130 -203 l7 -49 -129 0 c-71 0 -200 -3 -288 -7 l-158 -6 7 34 c27 137 88
215 195 250 48 16 192 4 236 -19z"/>
<path d="M3365 2589 c-1177 -9 -2337 -18 -2577 -18 l-438 -1 0 -175 0 -175
408 0 c224 0 1539 9 2922 20 1383 11 2620 20 2748 20 l232 0 0 175 0 175 -577
-1 c-318 -1 -1541 -10 -2718 -20z"/>
</g>
</svg>
