<svg width="600" height="600" viewBox="0 0 600 600" fill="none" xmlns="http://www.w3.org/2000/svg">
<g id="21e8-logo">
<rect width="600" height="600" fill="white"/>
<path id="21e8" d="M83.6211 306.07H151.189V334H49.3535V306.93L66.541 288.668C86.9512 266.969 99.3405 253.613 103.709 248.6C109.08 242.441 112.947 236.998 115.311 232.271C117.674 227.473 118.855 222.747 118.855 218.092C118.855 210.93 116.671 205.416 112.303 201.549C108.006 197.61 101.883 195.641 93.9336 195.641C88.276 195.641 81.9023 196.786 74.8125 199.078C67.7943 201.298 60.4538 204.557 52.791 208.854V179.312C60.4538 176.52 67.9375 174.407 75.2422 172.975C82.6185 171.471 89.6725 170.719 96.4043 170.719C113.377 170.719 126.697 174.693 136.365 182.643C146.105 190.52 150.975 201.298 150.975 214.977C150.975 221.279 149.9 227.187 147.752 232.701C145.675 238.215 142.059 244.339 136.902 251.07C133.107 255.94 122.687 266.897 105.643 283.941C96.4043 293.18 89.0638 300.556 83.6211 306.07ZM189.754 306.07H225.203V201.979L192.225 210.143V181.568L225.418 173.619H256.033V306.07H291.482V334H189.754V306.07ZM420.496 328.092C413.191 331.1 405.743 333.355 398.152 334.859C390.561 336.363 382.54 337.115 374.09 337.115C353.966 337.115 338.569 331.744 327.898 321.002C317.299 310.188 312 294.648 312 274.381C312 254.758 317.12 239.254 327.361 227.867C337.602 216.48 351.567 210.787 369.256 210.787C387.088 210.787 400.91 216.087 410.721 226.686C420.604 237.213 425.545 252.073 425.545 271.266V284.049H344.012C344.083 293.502 346.876 300.556 352.391 305.211C357.905 309.866 366.141 312.193 377.098 312.193C384.331 312.193 391.456 311.155 398.475 309.078C405.493 307.001 412.833 303.707 420.496 299.195V328.092ZM393.855 260.416C393.712 252.109 391.564 245.842 387.41 241.617C383.328 237.32 377.277 235.172 369.256 235.172C362.023 235.172 356.258 237.392 351.961 241.832C347.664 246.201 345.122 252.431 344.334 260.523L393.855 260.416ZM500.848 262.457C493.758 262.457 488.029 264.713 483.66 269.225C479.292 273.665 477.107 279.573 477.107 286.949C477.107 294.326 479.292 300.27 483.66 304.781C488.029 309.293 493.758 311.549 500.848 311.549C507.938 311.549 513.667 309.257 518.035 304.674C522.475 300.09 524.695 294.182 524.695 286.949C524.695 279.573 522.511 273.665 518.143 269.225C513.774 264.713 508.009 262.457 500.848 262.457ZM477.322 249.029C469.23 246.236 463.071 241.868 458.846 235.924C454.62 229.908 452.508 222.568 452.508 213.902C452.508 200.582 456.84 190.055 465.506 182.32C474.171 174.586 485.952 170.719 500.848 170.719C515.815 170.719 527.632 174.586 536.297 182.32C544.962 190.055 549.295 200.582 549.295 213.902C549.295 222.496 547.218 229.801 543.064 235.816C538.911 241.76 532.859 246.165 524.91 249.029C533.79 251.751 540.737 256.62 545.75 263.639C550.763 270.657 553.27 279.072 553.27 288.883C553.27 304.28 548.722 316.168 539.627 324.547C530.532 332.926 517.605 337.115 500.848 337.115C484.161 337.115 471.271 332.926 462.176 324.547C453.081 316.168 448.533 304.28 448.533 288.883C448.533 279 451.076 270.549 456.16 263.531C461.245 256.513 468.299 251.679 477.322 249.029ZM480.652 216.48C480.652 222.783 482.443 227.796 486.023 231.52C489.676 235.172 494.617 236.998 500.848 236.998C507.15 236.998 512.091 235.172 515.672 231.52C519.324 227.796 521.15 222.783 521.15 216.48C521.15 210.25 519.324 205.344 515.672 201.764C512.091 198.111 507.15 196.285 500.848 196.285C494.689 196.285 489.783 198.111 486.131 201.764C482.479 205.416 480.652 210.322 480.652 216.48Z" fill="black"/>
<line id="Line 1" x1="29.8879" y1="395.045" x2="570.888" y2="391" stroke="#FFC400" stroke-width="30"/>
</g>
</svg>